# xmcd CD database file
#
# Track frame offsets:
#	150
#	21812
#	40600
#	64600
#	90850
#	113600
#
# Disc length: 1827 seconds
#
# Revision: 2
# Processed by: cddbd v1.5.2PL0 Copyright (c) Steve Scherf et al.
# Submitted via: CDex 1.70beta2
#
DISCID=36072106
DTITLE=Richard Marx - Hard Rock Live at the channel [V]
DYEAR=1900
DGENRE=
TTITLE0=Can't help falling in love - Duet with Eric Moo
TTITLE1=Bring it on home to me
TTITLE2=Harzard
TTITLE3=Endless summer night
TTITLE4=Now and forever
TTITLE5=Right here waiting
EXTD=
EXTT0=Richard Marx and Eric Moo
EXTT1=
EXTT2=
EXTT3=
EXTT4=
EXTT5=
PLAYORDER=
